# xmcd
#
# Track frame offsets:
#	150
#	16588
#	36466
#	71148
#	87228
#	116603
#	147322
#
# Disc length: 2483 seconds
#
# Revision: 1
# Processed by: cddbd v1.4PL0 Copyright (c) Steve Scherf et al.
# Submitted via: audiograbber 1.82.02
#
DISCID=5c09b107
DTITLE=Rory Gallagher/Taste - In Concert  at the Marqee  oct.1968
DYEAR=1968
DGENRE=Blues
TTITLE0=Moving  On
TTITLE1=Pontiac Blues
TTITLE2=Baby, Please Don"t Go
TTITLE3=Blister On The Moon
TTITLE4=Sugar Mama
TTITLE5=First Time I Met The Blues
TTITLE6=Catfish
EXTD=
EXTT0=
EXTT1=
EXTT2=
EXTT3=
EXTT4=
EXTT5=
EXTT6=
PLAYORDER=
